                    Taylor Swift-Mine(TVRip CMT).AVI.torrent



      Taylor Swift-Mine(TVRip CMT).AVI
      Format : AVI
      Format/Info : Audio Video Interleave
      File size : 114 MiB
      Duration : 3mn 48s
      Overall bit rate : 4 208 Kbps
   Video
      Format : MPEG-4 Visual
      Format profile : Simple@L3
      Format settings, BVOP : No
      Format settings, QPel : No
      Format settings, GMC : No warppoints
      Format settings, Matrix : Default
      Codec ID : XVID
      Codec ID/Hint : XviD
      Duration : 3mn 48s
      Bit rate : 3 973 Kbps
      Width : 1 280 pixels
      Height : 720 pixels
      Display aspect ratio : 16/9
      Frame rate : 30.000 fps
      Resolution : 24 bits
      Colorimetry : 4:2:0
      Scan type : Progressive
      Bits/(Pixel*Frame) : 0.144
      Stream size : 108 MiB (94%)
      Writing library : ZJMedia MPEG Encoder
   Audio
      Format : MPEG Audio
      Format version : Version 1
      Format profile : Layer 3
      Codec ID : 55
      Codec ID/Hint : MP3
      Duration : 3mn 48s
      Bit rate mode : Constant
      Bit rate : 224 Kbps
      Channel(s) : 2 channels
      Sampling rate : 44.1 KHz
      Resolution : 16 bits
      Stream size : 6.10 MiB (5%)
      Alignment : Split accross interleaves
      Interleave, duration : 997 ms (29.90 video frames)